<svg width="12" height="13" fill="none" xmlns="http://www.w3.org/2000/svg"><g clip-path="url(#clip0_14_42)"><path d="M9.334 6.032L3.994.692A.652.652 0 003.528.5a.652.652 0 00-.464.192l-.393.393a.657.657 0 000 .928l4.484 4.485-4.49 4.489a.652.652 0 00-.191.464c0 .176.068.34.192.464l.393.393a.652.652 0 00.464.192.65.65 0 00.464-.192l5.346-5.345a.653.653 0 00.19-.465.652.652 0 00-.19-.466z" fill="#fff"/></g><defs><clipPath id="clip0_14_42"><path fill="#fff" transform="translate(0 .5)" d="M0 0h12v12H0z"/></clipPath></defs></svg>